<svg id="_223-bell" data-name="223-bell" xmlns="http://www.w3.org/2000/svg" width="28.824" height="28.824" viewBox="0 0 28.824 28.824">
  <g id="Group_1" data-name="Group 1" transform="translate(0)">
    <path id="Path_2" data-name="Path 2" d="M22.338,0a6.5,6.5,0,0,0-5.332,2.882,8.536,8.536,0,0,0-6.053,2.594L4.468,11.962a1.393,1.393,0,0,1-2.018,0,1.393,1.393,0,0,0-2.018,0,1.393,1.393,0,0,0,0,2.018L6.053,19.6a3.278,3.278,0,0,0-1.729.865,2.786,2.786,0,0,0,0,4.035,2.786,2.786,0,0,0,4.035,0,3.287,3.287,0,0,0,.865-1.729l5.621,5.621a1.427,1.427,0,0,0,2.018-2.018,1.575,1.575,0,0,1-.144-2.162L23.2,17.582a8.317,8.317,0,0,0,2.45-5.477,6.54,6.54,0,0,0,3.171-5.621A6.458,6.458,0,0,0,22.338,0Zm2.882,8.647A11.378,11.378,0,0,0,23.2,5.332a7.679,7.679,0,0,0-2.882-1.874,4.691,4.691,0,0,1,2.018-.576,3.6,3.6,0,0,1,2.882,5.765Z" transform="translate(0)" fill="#00b49d"/>
  </g>
</svg>
